PathFileType	4	(X/Y/Z)	c:/Users/goper/Files/vsCode/490R/osim_files/C12/C12_Fast_06.trc
DataRate	CameraRate	NumFrames	NumMarkers	Units                	OrigDataRate	OrigDataStartFrame	OrigNumFrames
120.00	120.00	10	36	mm	120.0	833	951
                Frame#	Time	LPSIS			LASIS			LTH1			LTH2			LTH3			LTH4			LLFE			LMFE			LSH1			LSH2			LSH3			LSH4			LLMAL			LMMAL			LCAL			LMTP5			LTOE			LMTP1			RPSIS			RASIS			RTH1			RTH2			RTH3			RTH4			RLFE			RMFE			RSH1			RSH2			RSH3			RSH4			RLMAL			RMMAL			RCAL			RMTP1			RTOE			RMTP5		
		X1	Y1	Z1	X2	Y2	Z2	X3	Y3	Z3	X4	Y4	Z4	X5	Y5	Z5	X6	Y6	Z6	X7	Y7	Z7	X8	Y8	Z8	X9	Y9	Z9	X10	Y10	Z10	X11	Y11	Z11	X12	Y12	Z12	X13	Y13	Z13	X14	Y14	Z14	X15	Y15	Z15	X16	Y16	Z16	X17	Y17	Z17	X18	Y18	Z18	X19	Y19	Z19	X20	Y20	Z20	X21	Y21	Z21	X22	Y22	Z22	X23	Y23	Z23	X24	Y24	Z24	X25	Y25	Z25	X26	Y26	Z26	X27	Y27	Z27	X28	Y28	Z28	X29	Y29	Z29	X30	Y30	Z30	X31	Y31	Z31	X32	Y32	Z32	X33	Y33	Z33	X34	Y34	Z34	X35	Y35	Z35	X36	Y36	Z36

833	6.93333	-4091.96509	1028.14172	297.78537	-4264.79150	985.45306	381.52185	0.00000	0.00000	0.00000	-4102.00537	681.86353	412.33005	0.00000	0.00000	0.00000	-4160.31787	669.89026	419.23016	-4097.63965	499.88925	390.90247	-4103.28125	484.68991	267.47760	-3984.21509	470.37247	397.52695	-3949.80908	437.70172	403.25394	0.00000	0.00000	0.00000	-3985.71826	397.27267	403.55945	-3751.25000	221.51955	356.68790	-3763.49927	215.83371	282.12286	-3699.52881	261.72879	315.03241	-3756.31543	70.32964	372.98920	-3808.06396	78.24194	302.14532	-3777.98657	63.89082	260.31601	0.00000	0.00000	0.00000	-4283.35352	1009.08075	123.27305	-4442.23438	439.88583	120.51897	-4442.83838	398.14761	113.15632	0.00000	0.00000	0.00000	0.00000	0.00000	0.00000	-4424.16064	545.84344	133.28955	-4398.87549	545.30383	264.19778	0.00000	0.00000	0.00000	-4379.34668	435.03726	106.22917	0.00000	0.00000	0.00000	-4428.48486	419.19287	102.65413	-4443.77637	108.86666	150.35973	-4457.61816	123.05919	235.16386	-4371.03223	71.90377	190.72600	-4585.64795	65.95387	232.77353	-4626.66357	92.67854	203.60220	0.00000	0.00000	0.00000
834	6.94167	-4105.85742	1029.94031	297.06079	-4278.11572	987.64423	379.71820	0.00000	0.00000	0.00000	-4122.19043	680.91107	412.61441	0.00000	0.00000	0.00000	-4181.05664	669.80481	419.36392	-4121.30518	498.59225	392.21994	0.00000	0.00000	0.00000	-4006.99292	472.35562	397.38681	-3971.51538	440.75958	403.20831	0.00000	0.00000	0.00000	-4004.96777	400.15805	404.69696	-3769.33521	230.16476	356.91544	-3781.90039	223.35179	282.22754	-3721.97754	274.80121	315.31473	-3762.43115	78.84135	372.66489	-3816.83105	80.08339	302.37485	-3785.20361	70.88859	260.88846	0.00000	0.00000	0.00000	-4296.97363	1012.64398	121.93297	0.00000	0.00000	0.00000	-4450.94238	398.11844	112.06686	0.00000	0.00000	0.00000	0.00000	0.00000	0.00000	-4436.21436	547.10577	132.00531	-4413.60059	547.36475	264.26230	0.00000	0.00000	0.00000	-4388.50635	436.59052	104.77048	0.00000	0.00000	0.00000	-4434.64258	422.78885	101.09109	-4444.61670	109.03513	150.17232	-4458.46387	123.28516	234.87575	-4371.42871	72.57728	190.52629	-4586.08789	65.06779	232.74948	-4627.41162	90.84875	203.32355	0.00000	0.00000	0.00000
835	6.95000	-4119.07080	1032.13184	296.26675	-4291.07959	989.85181	378.04477	0.00000	0.00000	0.00000	-4142.61230	679.89233	412.99326	0.00000	0.00000	0.00000	-4201.86914	669.84497	419.62735	-4144.93750	497.30801	393.46832	-4058.69580	429.91080	404.12186	-4030.29150	474.37759	397.37579	-3993.93066	443.91367	403.13669	0.00000	0.00000	0.00000	-4026.03735	402.38098	406.26926	-3788.39282	238.83517	356.85431	-3800.98486	230.90688	282.33096	-3745.80933	287.18637	315.61505	-3770.51758	88.39653	372.16666	-3827.97241	81.44748	303.17651	-3793.61548	78.48393	261.68799	0.00000	0.00000	0.00000	-4310.42480	1016.14484	120.49803	-4459.86914	439.85385	117.96823	-4458.29932	397.95026	110.92984	0.00000	0.00000	0.00000	-4405.88184	394.20071	98.25423	-4446.85156	547.86298	130.35271	-4426.78320	548.49652	263.25766	0.00000	0.00000	0.00000	-4396.86621	437.80026	103.34528	0.00000	0.00000	0.00000	0.00000	0.00000	0.00000	-4445.35352	109.22967	150.10574	-4459.25293	123.52676	234.64450	-4371.80322	73.15045	190.44373	-4585.70459	62.56004	234.04202	-4628.05957	89.76412	203.48538	-4591.26514	60.83163	126.51086
836	6.95833	-4132.58740	1034.28784	295.57932	-4303.84424	992.07922	376.54276	0.00000	0.00000	0.00000	-4163.12061	678.89343	413.52548	0.00000	0.00000	0.00000	-4222.60938	670.12018	419.98834	-4168.63281	496.27075	394.81696	0.00000	0.00000	0.00000	-4054.20044	476.24921	397.65897	-4016.99048	446.89523	403.40048	-4084.07642	429.97668	405.40350	-4047.80249	404.61011	407.82022	-3807.93579	246.74258	356.65741	-3820.77490	237.90520	282.03598	-3771.12671	298.58884	315.70078	-3780.29614	97.50485	371.06952	-3840.02368	81.59122	304.22659	-3803.77100	86.52681	262.59506	0.00000	0.00000	0.00000	-4323.76855	1019.56274	119.19047	0.00000	0.00000	0.00000	-4464.96436	397.58649	109.62556	0.00000	0.00000	0.00000	0.00000	0.00000	0.00000	0.00000	0.00000	0.00000	-4437.65283	548.76556	261.12830	0.00000	0.00000	0.00000	-4404.59424	438.70984	102.16054	0.00000	0.00000	0.00000	-4450.54443	424.81985	98.68868	-4445.98486	109.37872	150.02823	-4459.90576	123.75616	234.37482	-4372.13770	73.84115	190.31978	-4586.86572	64.01899	233.01398	-4628.48633	88.85458	203.39011	-4591.58691	60.27840	126.19212
837	6.96667	-4145.66553	1036.67163	294.92462	-4316.48145	994.31226	375.22260	0.00000	0.00000	0.00000	-4183.52295	678.30988	414.05307	0.00000	0.00000	0.00000	-4243.11768	670.64288	420.82416	-4191.99365	495.81885	395.70053	0.00000	0.00000	0.00000	-4078.64941	478.12350	398.05164	-4040.89478	449.46997	404.04800	-4109.69580	430.62103	406.68134	-4070.04395	406.19846	409.10471	-3828.58813	254.58272	356.42816	-3841.57251	244.23451	281.46841	-3796.78052	308.73618	315.24234	-3793.52148	108.29803	371.22891	-3852.05615	81.14721	305.43475	-3815.63501	94.41658	263.14972	0.00000	0.00000	0.00000	-4337.07959	1022.70575	117.92371	-4474.21680	438.91739	115.29194	-4470.92139	397.01660	108.37630	0.00000	0.00000	0.00000	-4418.71826	396.27344	96.13358	0.00000	0.00000	0.00000	-4446.25879	548.54730	258.64981	0.00000	0.00000	0.00000	-4411.35889	439.26871	100.83212	0.00000	0.00000	0.00000	0.00000	0.00000	0.00000	-4446.48828	109.48487	149.82368	-4460.47510	124.03471	234.06697	-4372.39648	74.39357	190.12917	-4587.18994	63.91494	232.96922	-4628.81934	88.08667	203.08058	0.00000	0.00000	0.00000
838	6.97500	-4158.57764	1038.99927	294.40839	-4329.00195	996.55151	374.07608	0.00000	0.00000	0.00000	-4213.21484	676.35925	417.16336	0.00000	0.00000	0.00000	0.00000	0.00000	0.00000	-4215.41211	495.87372	396.66888	0.00000	0.00000	0.00000	-4104.49463	479.57492	399.28058	-4065.39111	451.93604	404.76370	-4137.19287	430.01898	410.35580	-4093.95532	408.35077	410.37820	-3849.80029	261.78052	356.38083	-3862.88721	249.88808	280.92450	-3821.63281	317.38187	314.28430	-3807.12402	116.66196	368.95947	-3863.33057	79.54764	306.91714	-3830.02466	101.43591	264.07114	0.00000	0.00000	0.00000	-4350.21387	1025.61023	116.61292	-4480.31152	438.29883	114.01176	-4471.60205	391.54416	107.09759	0.00000	0.00000	0.00000	-4424.32861	394.07205	92.83749	0.00000	0.00000	0.00000	-4453.23682	548.17963	256.28775	0.00000	0.00000	0.00000	-4417.36133	439.59744	99.54985	0.00000	0.00000	0.00000	0.00000	0.00000	0.00000	-4446.98096	109.55152	149.58427	-4461.12402	124.42175	233.72501	-4372.60742	74.85619	189.95343	-4587.43848	63.77048	232.86517	-4629.27686	87.57782	202.84592	-4592.06738	59.45052	125.64609
839	6.98333	-4171.90869	1041.90869	294.89624	-4341.32666	998.77258	373.10309	0.00000	0.00000	0.00000	-4228.55713	675.31702	414.74014	0.00000	0.00000	0.00000	-4281.69385	671.80890	422.99435	-4239.45801	497.56906	398.11185	0.00000	0.00000	0.00000	-4129.39404	482.33075	400.09503	-4090.49219	453.86520	405.59540	-4162.02002	431.51004	411.37598	-4118.60547	410.28937	411.45871	-3871.58179	268.38275	356.13837	-3884.81299	255.18100	280.48605	-3846.35278	324.66403	312.79419	-3822.09375	124.25673	367.36676	-3872.90918	79.53696	309.56851	-3847.12280	107.34382	264.86310	0.00000	0.00000	0.00000	-4363.30420	1028.24414	115.43008	0.00000	0.00000	0.00000	0.00000	0.00000	0.00000	-4435.48730	768.19830	74.43201	0.00000	0.00000	0.00000	0.00000	0.00000	0.00000	-4459.21973	547.91571	254.23636	0.00000	0.00000	0.00000	-4422.30371	439.63776	98.17675	-4476.43799	391.17529	106.04022	-4473.27344	430.56702	99.43665	-4447.45166	109.59476	149.38280	-4461.71143	124.76554	233.39182	-4372.89014	75.37487	189.85175	-4587.60986	63.51505	232.84409	-4629.60596	87.02867	202.64142	-4592.30029	59.17528	125.58536
840	6.99167	-4184.32568	1043.77026	294.45493	-4353.55078	1000.99603	372.26096	0.00000	0.00000	0.00000	-4247.35645	676.58545	415.52557	0.00000	0.00000	0.00000	-4300.92676	675.40448	424.60815	-4262.90625	498.38379	398.82077	0.00000	0.00000	0.00000	-4154.40771	483.33914	400.25464	-4117.56445	454.91922	407.70328	-4187.40381	432.90131	412.05215	-4144.22119	412.65280	412.48846	-3893.61328	274.53650	355.72824	-3907.85547	259.78299	280.28046	-3871.66553	330.95532	310.80496	-3838.17114	132.73912	367.51254	-3885.52100	84.32420	313.91644	-3862.45630	119.65536	259.97546	0.00000	0.00000	0.00000	-4376.28906	1030.67859	114.33528	-4445.22949	768.49512	72.64565	-4461.44238	725.44769	80.19704	0.00000	0.00000	0.00000	0.00000	0.00000	0.00000	0.00000	0.00000	0.00000	-4464.56006	547.88641	252.49075	0.00000	0.00000	0.00000	-4426.46289	439.79242	97.13152	-4480.39111	390.87637	104.99003	0.00000	0.00000	0.00000	-4447.76514	109.67513	149.14156	-4462.09668	125.00648	233.08679	-4373.11426	75.90820	189.70984	-4587.69434	63.31073	232.73206	-4629.85840	86.63982	202.45319	-4592.47266	58.95599	125.45653
841	7.00000	-4195.43115	1045.16528	292.88876	-4365.86670	1003.41156	371.47421	0.00000	0.00000	0.00000	-4264.54492	678.79852	415.45114	0.00000	0.00000	0.00000	-4318.79004	678.45337	426.01169	-4287.10889	501.60934	400.50226	0.00000	0.00000	0.00000	-4180.90430	484.54343	401.94095	-4142.82861	456.71085	408.41617	-4213.00928	434.48438	412.31985	-4169.64258	414.31757	412.88889	-3916.49438	280.83728	354.94955	-3931.88892	264.13840	280.12863	-3896.32495	336.80438	308.59491	-3857.99121	139.53619	367.25067	-3906.23169	91.39660	314.42050	-3886.32104	123.91772	260.24445	0.00000	0.00000	0.00000	-4389.01709	1032.88855	113.20684	0.00000	0.00000	0.00000	0.00000	0.00000	0.00000	0.00000	0.00000	0.00000	-4454.28711	769.00354	70.83390	0.00000	0.00000	0.00000	-4469.51709	548.08136	251.00798	0.00000	0.00000	0.00000	-4429.74512	440.14850	96.28448	-4483.69824	390.86792	103.87284	0.00000	0.00000	0.00000	-4448.13867	109.75041	148.83690	-4462.54150	125.39216	232.68889	-4373.29346	76.42451	189.56146	-4587.92773	63.32281	232.58643	-4630.15430	86.25055	202.19493	0.00000	0.00000	0.00000
842	7.00833	-4207.64160	1046.94934	292.35583	-4377.99609	1005.97217	370.73346	0.00000	0.00000	0.00000	-4282.09033	680.86920	415.65860	0.00000	0.00000	0.00000	-4336.28760	681.84979	427.04135	-4310.67090	504.05121	401.33542	0.00000	0.00000	0.00000	-4205.61426	487.05728	402.32541	-4168.08447	458.72028	409.28372	-4238.43555	436.20917	412.66891	-4194.63086	415.33057	412.98953	-3939.99634	286.56381	353.74127	0.00000	0.00000	0.00000	0.00000	0.00000	0.00000	-3881.65552	145.01259	366.97519	-3932.23706	95.35662	314.64999	0.00000	0.00000	0.00000	0.00000	0.00000	0.00000	-4401.54248	1035.01318	112.16503	-4478.88867	417.05228	85.35248	-4438.29443	395.79535	88.83347	0.00000	0.00000	0.00000	0.00000	0.00000	0.00000	0.00000	0.00000	0.00000	-4471.55176	546.01770	247.09543	0.00000	0.00000	0.00000	-4434.53125	440.25739	97.27039	-4486.42676	391.10782	102.82085	0.00000	0.00000	0.00000	-4448.53418	109.89489	148.60957	-4463.03125	125.85884	232.31712	-4373.47949	76.94215	189.43523	-4588.12549	63.37072	232.45552	-4630.46094	85.95585	201.97061	0.00000	0.00000	0.00000
